<svg id="Capa_1" enable-background="new 0 0 512 512" height="512" viewBox="0 0 512 512" width="512" xmlns="http://www.w3.org/2000/svg"><g><path d="m497 181.867c-37.814 0-306.336 0-315.299 0 35.583-7.363 305.712-63.264 308.915-63.926 8.113-1.679 13.333-9.628 11.646-17.743l-18.323-88.115c-1.685-8.106-9.624-13.313-17.727-11.635l-442.576 91.615c-8.112 1.679-13.332 9.628-11.645 17.742l10.059 48.375c-13.19 7.854-22.05 22.252-22.05 38.687 0 19.555 12.541 36.228 30 42.42v257.58c0 8.284 6.716 15 15 15h452c8.284 0 15-6.716 15-15 0-22.263 0-288.544 0-300 0-8.285-6.716-15-15-15zm-203.787 90 60-60h77.574l-60 60zm-120 0 60-60h77.574l-60 60zm-113.213 0v-32.58c12.764-4.527 22.893-14.656 27.42-27.42h103.367l-60 60zm-30-75c0-8.271 6.729-15 15-15s15 6.729 15 15-6.729 15-15 15-15-6.729-15-15zm443.213 15h8.787v60h-68.787zm-242.226-132.091 71.009 46.561-76.038 15.735-71.003-46.557zm117.615-24.347 71.018 46.567-76.038 15.735-71.012-46.563zm121.231 36.176-8.627 1.785-71.021-46.569 67.432-13.959zm-356.461 12.518 71 46.555-102.025 21.112c-6.944-10.308-18.04-17.593-30.87-19.451l-7.058-33.942zm368.628 377.744h-422v-180h422z"/></g></svg>